<svg xmlns="http://www.w3.org/2000/svg" viewBox="0 0 32 32" width="32" height="32">
  <defs>
    <linearGradient id="grad" x1="0%" y1="0%" x2="100%" y2="100%">
      <stop offset="0%" style="stop-color:#667eea;stop-opacity:1" />
      <stop offset="100%" style="stop-color:#764ba2;stop-opacity:1" />
    </linearGradient>
  </defs>
  
  <!-- Background circle -->
  <circle cx="16" cy="16" r="15" fill="url(#grad)" stroke="#fff" stroke-width="1"/>
  
  <!-- JSON/XML icon representation -->
  <!-- Curly brace { -->
  <path d="M8 10 Q7 10 7 11 L7 13 Q7 14 6 14 Q7 14 7 15 L7 17 Q7 18 8 18" 
        fill="none" stroke="white" stroke-width="1.5" stroke-linecap="round"/>
  
  <!-- Angle bracket < -->
  <path d="M12 12 L10 14 L12 16" 
        fill="none" stroke="white" stroke-width="1.5" stroke-linecap="round" stroke-linejoin="round"/>
  
  <!-- Forward slash / -->
  <line x1="14" y1="16" x2="18" y2="12" 
        stroke="white" stroke-width="1.5" stroke-linecap="round"/>
  
  <!-- Angle bracket > -->
  <path d="M20 12 L22 14 L20 16" 
        fill="none" stroke="white" stroke-width="1.5" stroke-linecap="round" stroke-linejoin="round"/>
  
  <!-- Curly brace } -->
  <path d="M24 10 Q25 10 25 11 L25 13 Q25 14 26 14 Q25 14 25 15 L25 17 Q25 18 24 18" 
        fill="none" stroke="white" stroke-width="1.5" stroke-linecap="round"/>
  
  <!-- Small dots for data representation -->
  <circle cx="13" cy="22" r="1" fill="white" opacity="0.8"/>
  <circle cx="16" cy="22" r="1" fill="white" opacity="0.8"/>
  <circle cx="19" cy="22" r="1" fill="white" opacity="0.8"/>
</svg>